<svg id="Capa_1" data-name="Capa 1" xmlns="http://www.w3.org/2000/svg" xmlns:xlink="http://www.w3.org/1999/xlink" viewBox="0 0 6117.13 4049.72"><defs><style>.cls-1{fill:url(#Degradado_sin_nombre_23);}.cls-2{fill:#05688b;}.cls-3{fill:#2fb4e8;}.cls-4{fill:#968b83;}.cls-5{fill:#6fc9ed;}.cls-6{fill:#e56c29;}.cls-7{fill:#3d2619;}.cls-8{fill:#3e2517;fill-rule:evenodd;}</style><radialGradient id="Degradado_sin_nombre_23" cx="3299.19" cy="697.47" r="697.47" gradientUnits="userSpaceOnUse"><stop offset="0" stop-color="#f9ae33"/><stop offset="1" stop-color="#eb5d0b"/></radialGradient></defs><title>logo rdguide</title><circle class="cls-1" cx="3299.19" cy="697.47" r="697.47"/><path class="cls-2" d="M4308.18,2429.48c65.47-29.14,137.84-39.61,206.58-92.14-243.89,39-470.37,7.27-693.53-44.86-304.63-71.15-607.9-141-922-62.38,4.49,39.62,38.38,34.38,62.37,36.33,65.33,5.31,126.35,29,190.69,38.5C3560.3,2365.15,3983.05,2574.23,4308.18,2429.48Z" transform="translate(-63.98 -613.94)"/><path class="cls-3" d="M3257,2353.67c-170.42-54.5-342.81-91.91-523.31-67.6-125.37,13.66-248.44,34.84-355.27,108.95-.75,22.93,13.26,15.83,25.42,12.5,51.06-3.88,102.13-11.12,153.18-11.06,223.09.26,436.72,53.67,648.81,116.95,215,64.15,432.38,86.44,652.24,23,17.2-5,38.49-5,46.81-28.64C3904.88,2507.76,3527,2440,3257,2353.67Z" transform="translate(-63.98 -613.94)"/><path class="cls-4" d="M2396.35,1040.15c14.84,8.4,15.79,17.69-2,20.5-18.73,3-38.2,1.25-57.34,1.58C2352.45,1043.14,2381.42,1060.51,2396.35,1040.15Z" transform="translate(-63.98 -613.94)"/><path class="cls-5" d="M2374.15,2391.93l25.41,12.49c-13.08,10.46-29.78,17.14-42.14,5.79C2351,2404.26,2364.52,2395,2374.15,2391.93Z" transform="translate(-63.98 -613.94)"/><path class="cls-6" d="M3320.87,1731.89c-11.52,7.14,7.71,15.22,14.31,22.22l28-2.92C3351.52,1738.41,3335.58,1722.78,3320.87,1731.89Z" transform="translate(-63.98 -613.94)"/><path class="cls-7" d="M3309.43,1654.45c-26.54-10-53.9-10.61-81.3-10.62,7.19-2,13.94-6.09,19.93-13.63,9.6-12.07-8-18.84-21.94-21.93,22.43-7.24,43.94-5.2,65.21-6.39,19.78-1.1,43.78,13.88,57.34-13.66-9.64-20.74-21.87-37.37-48.05-25.86-1.5.66-6.89-7.57-.88-6.58,23.22-7.54,43.3,6.36,64.4,4.15,11.85-1.23,25.33-2.13,28.76-15.35,2.58-10-6.33-18.14-14.12-24.15-42.5-32.78-89.6-47-143.4-36.11-36.15,7.29-67.82,25.77-107.41,47,13.54-46.85,21.36-85.16,19.15-124.57a147.2,147.2,0,0,0-3.23-26.42c-11.89-60.31-46.67-103.08-99.65-132.89-36.6-20.6-76.32-32.06-116.25-43.27-36.19-2.36-71-16.71-108-11.85-8.33,1.26-16.71,1.59-25.24,2.9-6.58-.8-10.18,8.3-17.79,5,13.56-8.52,30.42-5.75,45.29-10.81,51.85-19.54,113.06-9.43,158.62-49.57-2.08-21.17-28.76-18.93-36.43-35.8,50.56-17.33,100.34-27.9,152-27.88,20-6.32,48.3,7.49,58.89-19.84,4.19-10.83-4.73-18.6-14.32-24.74a79.23,79.23,0,0,1-8.37,6.66c-37.28-8.78-72.92-24.6-120.86-23.39,45.61-31.62,87.83-37.65,132.62-33.28a51.35,51.35,0,0,1,7.89,14.42c9.47,0,19,.13,28.42-.36,18.4-1.92,38.1-.52,49.1-20.33.64-14.37-9.17-21.95-19.2-29.33a378.57,378.57,0,0,0-56.45-27.37c-20.22-7.11-40.83-12.34-62.36-13.13-24.64-.16-49.32-1.17-73.65,4.21-25.57,8.51-53.56,8.4-77.55,22.36-36,22.91-81.89,31.52-104.62,73.31l-166.67,143.34c10.51-81.32,46.87-145.59,75.87-213.4-32.1-6.23-36.66,29.94-63.43,30.3,8.12-77.73,45.91-143.41,83.6-217.44-48.86,7-59.72,49.72-93.37,62.83-9.35-70.08,54.37-111.65,61.92-173.83-169.8,92.12-162.48,255.62-160.57,420.37-196-217.2-307.4-262.73-425.23-177.24,133.33,17.26,145.55,21.81,173.42,65.26-43.68-1.85-87.46-7.72-129.75,18.53,74.61,12.85,144.45,31.86,204.61,76.08-7.36,12.89-7.36,12.89-59.3,22.08-4.66,1.72-12.18-.19-11.32,8.5.14,1.33,2.19,3.08,3.7,3.57,60.6,19.67,124,33.25,172.09,81.46-94.59-17.3-185.76-49.51-283.24-47.69-120.19,2.23-196.78,38.63-244.08,124,67.37-14.91,126.62-61.79,214.64-39.88-57.51,20.91-90.26,48.09-123.75,85,46.31-13.53,87.13-25.83,128.16-37.35,40.84-11.46,82.08-14.57,128.67-8-22.58,22.41-48.32,30.83-62.45,58.83,87.82-21.74,171.34-50.34,264.73-34-252.93,218.78-322.35,357.63-238.84,472.21,20-123.79,33.77-155.86,76.6-175.57-2.36,36.1-5.67,71.67,5.91,113.09,34.89-78.93,48.36-161.19,110.52-221.23,9.32,25.24-7.4,52.71,19.76,69.82a952.49,952.49,0,0,1,82.43-182.58c23.56-40.18,38.86-26.55,55.15,2.21,6.6,11.65,9.32,25.63,13,38.79,37.06,133.89,50.39,271.15,53.7,409.28,3.83,160.16-17.16,318.2-50.86,473.72,47,0,92.22-2,137.12.64,34.55,2,45.83-7.91,49.54-44.74,12.9-128.11,47.09-251.3,103.49-367.52,18-37.1,38.87-72.86,59.51-108.6,5.8-10,16.78-21.87,27.95-17.4,8,3.21,14.07,17.6,16.26,28,5.67,27,8.17,54.59,13.22,81.72,1.19,6.45-6.25,20.89,12.47,17.36,21.81-4.13,23-3.26,25.21,10.51,5.28,32.62,9.54,65.4,15.79,109.19l24.89-67.15c22.92,40.33,12.95,80.77,17.47,119.23,71.75-120.74-4.36-214.9-64.54-314.07,58.23-3.58,95.69,58.7,156.18,29.21,14.48-7.06,47.23,22.73,71.28,36.13,19.83,11,18-2.63,17.81-14.87,7-23.16,18.69-1.82,28-2.92,13.85,9,27.16,19,41.68,26.69,15.68,8.35,9.34-8.54,13.57-13.46C3417.67,1692.57,3356.79,1680.17,3309.43,1654.45Zm-331.14,67.48c-62,69.72-105.23,151.13-147.9,234.83-2.65-84.2-10.8-166.26-19.37-248.33-1.65-15.81-13.18-37.7,14.89-42.65,21.09-3.72,41.92-21.8,63.4,7.45,12.87,17.53,40.45,5.58,61.08,3.15,15.19-1.78,26.9-2.23,34.31,13.71C2990.6,1702.76,2987.1,1712,2978.29,1721.93Zm-21.39-298.1c-25,2.34-50.55-.92-74.67,8.67-38.42-20.73-77.82-38-122.82-35.4-2,4-.26,7.57,12.28,10.39,31.85,7.15,61.71,19.1,85.12,46.24-22.49,14.72-50.51-16.13-67.54,12.42,44.87,10.59,82.68,33.5,118.38,67.57l-39,7.84c25.92,24.13,63.13,28.74,92,65.47-59,4.07-108.91-16.88-159.56-9.22-17.05,2.58-13-21-16.49-32.89-8.13-28.08-14.12-56.78-21-85.22q-14-38.9-28.1-77.79a26.52,26.52,0,0,1-18.06-6.79c-7.9-15.36-17.24-30.17-23.35-46.21-8.51-22.32,11.08-35.2,21.24-50.36,11.53-17.2,25.18-1.81,35.67,2.67,38.9,16.6,79.57,30.49,111.29,60.46,49.66-14.91,95.17,2.19,140.8,18.3,15.83,3.54,30.2,9.72,40.69,22.8C3020.06,1431.29,2986.83,1421,2956.9,1423.83Zm124.7-28.21c-27.53-7.9-21.3-42.08-44.24-49.56-23.39,8.14-23.39,8.14-55-30,28.27-12.29,48.25,1.72,67.1,19.71C3073.3,1347.38,3091.08,1362.21,3081.6,1395.62Zm90.52,242.15c8.9,1.51,18.14,4.07,27.28,5.82-9.35-.2-18.67-.6-27.94-1.69C3172.8,1649.69,3164.29,1635.57,3172.12,1637.77Z" transform="translate(-63.98 -613.94)"/><g id="RD_Guide" data-name="RD Guide"><path class="cls-8" d="M2481.91,4286.5a199.59,199.59,0,0,1-46.5,95.58q-36.21,41.3-87.83,68.46t-112.37,40a577,577,0,0,1-120.13,12.92q-87.84,0-178.24-38.75t-180.83-102q-90.45-63.33-179.53-144.66t-169.21-165.33q-80.1-83.91-151.12-164t-125.28-139.49q118.79-85.24,179.53-241.53t60.71-337.12q0-54.24-11.63-113.66t-36.16-109.79q-24.58-50.37-64.58-84t-94.29-33.58q-75,0-162.75,84T839,3152.46a661.45,661.45,0,0,0-9-179.54q-16.83-89.11-56.83-160.16t-105.92-115q-65.86-43.91-158.87-43.92-100.74,0-182.12,49.08T186.69,2833.43q-58.12,81.38-90.42,184.7T64,3232.54q0,69.75,18.09,131.75t54.24,111.07q36.15,49.11,87.84,77.5t121.41,28.42a245.58,245.58,0,0,0,37.45-2.59q16.78-2.54,19.38-15.49,0-5.16-15.5-7.75t-36.17-7.75q-85.25-18-124-100.75T188,3255.79q0-93,24.54-193.75t67.17-183.41q42.62-82.64,102-136.91t126.58-54.25q46.5,0,82.67,32.29t60.7,78.79A392.92,392.92,0,0,1,687.84,2898q11.63,53,11.62,94.29a1640.09,1640.09,0,0,1-28.41,303.53q-28.45,151.13-67.17,279t-76.2,223.45q-37.48,95.59-55.54,136.91a193,193,0,0,0-18.09,82.67q0,25.84,7.75,56.83a235.62,235.62,0,0,0,22,56.83q14.17,25.86,33.58,40T560,4178q20.64-7.76,47.79-67.17T662,3963.6q27.12-87.79,55.54-191.16t50.37-197.62q21.92-94.28,37.46-165.33T826,3315.2a1243.3,1243.3,0,0,1,50.38-126.58q29.66-64.53,63.29-114.95t68.45-82.66q34.88-32.28,68.46-32.3,31,0,55.54,28.42t41.33,72.33a525.26,525.26,0,0,1,25.83,94.29q9,50.37,9,91.71,0,124-32.29,226t-109.79,192.45q-33.6-12.9-74.91-18.08t-78.79,0q-37.47,5.2-64.58,25.83t-27.12,59.42q0,31,25.83,49.08t62,24.54q36.13,6.48,77.49,2.58t69.75-16.79q87.79,139.5,201.5,293.2a2294.35,2294.35,0,0,0,246.69,282.87q133,129.14,284.16,213.11t319,84q118.8,0,196.33-38.75t122.7-91.7q45.18-53,62-109.79t16.79-95.58q0-41.35-7.75-62T2481.91,4286.5ZM963,3741.44a275.22,275.22,0,0,1-49.08,10.33q-23.25,2.61-40-3.87c-11.22-4.28-16.79-11.63-16.79-22s5.17-19.37,15.5-27.12,23.25-12.48,38.75-14.21,31.85,0,49.08,5.16,32.7,15.5,46.5,31Q988.76,3733.73,963,3741.44ZM1789.58,3992c12,8.64,24.1,14.21,36.17,16.8s22.8,2.18,32.29-1.3,15.9-12,19.37-25.83q20.65-85.24,41.33-187.28t40-213.12q19.38-111,36.17-224.74t29.71-224.75q2.53-38.74-11.63-60.7t-34.87-22q-20.72,0-42.63,25.83T1903.24,3155q-44,211.85-86.53,368.11t-78.79,288q-13,43.95-9.05,83.95T1756,3963.6A263.45,263.45,0,0,0,1789.58,3992Zm769.81-865.38q-28.45-80-82.66-140.79a399.14,399.14,0,0,0-127.88-95.58q-73.62-34.87-162.74-40t-184.7,28.41q-82.71,28.45-143.37,69.75t-105.92,87.83q-45.22,46.5-74.91,90.42t-47.79,74.91q-7.76,18.11,2.58,46.5t28.42,49.08q18,20.7,38.75,23.25t36.16-31q28.39-62,56.83-118.83a735.41,735.41,0,0,1,63.29-104.62,484,484,0,0,1,77.5-84q42.63-36.14,102-59.41,80-28.4,139.5-20.67t104.62,42.63q45.16,34.88,77.49,91.7t60.71,126.58q25.79,69.75,31,164t-7.75,197.62a1325.59,1325.59,0,0,1-42.62,205.36q-29.73,102.09-73.63,187.29T2221,4060.47q-59.45,58.13-129.16,71-90.45,18.1-164,2.58t-130.46-54.25a342.74,342.74,0,0,1-94.29-95.58,428.73,428.73,0,0,1-55.54-121.41q-7.74-43.89-31-42.62t-45.2,27.12q-22,25.86-33.59,63.29t6.46,68.46q54.25,72.34,122.71,117.54a554.71,554.71,0,0,0,144.66,68.45,633.48,633.48,0,0,0,153.7,27.13q77.51,3.87,147.25-6.46,103.29-15.49,186-77.5t142.08-151.12q59.4-89.11,96.87-197.62a1099.29,1099.29,0,0,0,51.67-220.87q14.16-112.37,6.45-219.57T2559.39,3126.63Zm2287.39,378.44a116.23,116.23,0,0,0,32.29,9q18,2.61,32.3,0c9.44-1.69,15.05-5.16,16.79-10.33q2.54-38.75,24.54-68.46t47.79-60.7q15.49-20.65-12.92-50.38t-67.16-29.7q-31,0-56.83,11.62t-31,40q-7.76,44-7.75,74.92a473,473,0,0,0,5.16,67.16Q4832.54,3498.63,4846.78,3505.07ZM6173.3,2976.8a229,229,0,0,0-18.08-53q-13-27.12-25.83-43.91t-22-19.38q-9.09-2.53-3.87,18.08,20.64,116.25-20.67,200.21t-121.41,134.33q-80.1,50.37-186,65.87a745.57,745.57,0,0,1-214.41,0q7.76-54.26,7.75-116.25t-15.5-116.25q-15.49-54.24-52.95-94.28t-107.21-47.79q-75-7.75-118.83,37.45t-49.08,104.62a233.12,233.12,0,0,0,6.46,87.84,243.27,243.27,0,0,0,37.46,80.08,286.56,286.56,0,0,0,62,63.29,255.11,255.11,0,0,0,77.5,40q-2.59,59.45-20.67,130.45t-36.16,122.7q-51.7-12.89-96.87-14.2t-84,24.54q-31,20.7-59.41,65.87t-51.67,102a690.4,690.4,0,0,0-36.16,117.54q-12.9,60.72-12.92,109.78c0,2.75.13,5.55.36,8.39q-18.18,29.28-41.71,44.57-25.86,16.83-59.42,9-36.19-7.74-40-65.87t6.46-129.16a1021,1021,0,0,1,28.42-134.33q18-63.27,25.83-84,7.76-23.25-12.92-34.87t-49.08-14.21a182.62,182.62,0,0,0-56.83,3.88q-28.4,6.48-33.58,22-15.51,41.36-31,108.5a810.11,810.11,0,0,0-19.37,138.2q-1.16,20.91-.82,41.14-13.5,35.71-28.85,68.65-18.1,38.75-37.46,63.29t-37.45,19.38q-28.47-7.76-25.84-64.59t16.79-126.57q14.17-69.75,31-130.46t16.79-73.62q2.55-23.25-18.08-43.92a135.44,135.44,0,0,0-47.79-31q-27.12-10.29-54.25-3.87t-37.46,40q-20.7,59.46-29.7,89.12t-12.92,43.92c-2.58,9.48-4.76,17.68-6.46,24.54s-5.16,17.23-10.33,31q-7.76,23.25-20.67,55.54t-27.12,62q-14.23,29.71-25.83,55.54t-19.38,38.74q-28.46,41.35-51.66,28.42t-23.25-85.25q0-36.13,9-86.54t22-102q12.9-51.65,27.12-96.88t27.13-71q5.14-12.89-15.5-22t-47.79-11.63l-3.68-.3a72.77,72.77,0,0,0-14.4-16.49q-16.85-14.16-19.38-11.62-131.74,62-226,68.45A577.76,577.76,0,0,1,3851,3583.86q-25.84,7.76-25.83,22c0,9.48,6.86,17.68,20.67,24.54q20.64,15.49,63.29,25.83t94.29,15.5a594.38,594.38,0,0,1-25.84,173.08q-25.84,85.24-51.66,134.33-41.36,82.7-113.67,130.45t-153.7,53q-81.37,5.2-160.16-34.88t-133-133q-56.85-95.55-67.16-220.87t15.5-257a1110.85,1110.85,0,0,1,82.66-254.45q56.79-122.67,135.62-214.41t175.66-136.92q96.87-45.16,200.21-19.37,116.23,28.45,155,104.62t33.58,160.16q-5.21,84-34.87,152.42t-50.37,83.95q-36.21,28.46-41.34,56.83t56.83,23.25q59.4-5.15,99.46-47.79t58.12-105.91q18-63.27,12.92-136.91a451.6,451.6,0,0,0-33.58-142.08q-28.46-68.41-84-120.12t-138.2-72.33q-155-36.15-284.16,1.29t-229.91,122.7q-100.74,85.24-170.49,209.24t-100.75,259.62q-31,135.62-23.25,271.24T3193.55,3961q53,113.7,152.41,189.86t251.87,94.29q93,10.31,183.41-28.41t160.16-115q69.75-76.15,111.08-184.7t38.75-237.66a506.12,506.12,0,0,0,72.33-5.17q17.85-2.54,33.18-5.72-9.48,39.9-19,88.39A1120.73,1120.73,0,0,0,4161,3878.35q-5.15,62,2.59,103.33,5.2,25.86,21.95,53a207.73,207.73,0,0,0,38.75,46.5,168.58,168.58,0,0,0,46.5,29.7q24.52,10.36,47.79,2.59a78,78,0,0,0,22-12.92q9-7.76,19.37-18.08,23.25-28.39,55.54-77.5t53-93q-2.61,59.46,16.79,124t81.37,82.66q51.65,15.51,94.29-10.33t74.92-72.33q5.88-8.47,11.46-17.34,14.46,37.86,41.45,61.25,25.8,20.72,53,29.71t65.87,9q54.26,0,96.87-29.7a251.91,251.91,0,0,0,34.22-28.61c1.87,3.09,3.8,6.17,5.84,9.23q15.51,23.25,34.88,38.75t40,15.5q49,0,87.83-59.41t82.66-129.17q5.15,82.71,43.92,133t103.33,50.37q56.79,0,96.87-40a367,367,0,0,0,33-37.82,207.14,207.14,0,0,0,22.47,27.49q41.29,42.63,124,50.37,124,10.36,224.74-71t142.08-223.45c0-3.43-3-6.86-9-10.33a53.88,53.88,0,0,0-20.67-6.46,71.74,71.74,0,0,0-23.25,1.29q-11.62,2.61-16.79,15.5-46.5,111.11-124,170.5t-136.91,54.25q-38.74-2.55-59.41-27.13a105.56,105.56,0,0,1-24.54-56.83,164.11,164.11,0,0,1,5.16-64.58q9-32.26,24.54-55.54,51.65,28.45,98.17,18.08t80.08-42.62a221.55,221.55,0,0,0,51.66-76.21q18-43.89,16.79-85.24t-24.54-71q-23.25-29.67-74.91-29.71-90.45,0-153.71,49.08t-107.2,124q-28.4,51.7-42.62,114.95-13.52,60.39-3.59,116-28.91,68.34-48.05,86.78-34.87,33.6-47.79-80.08-7.76-56.8,6.46-135.62t36.16-164q21.92-85.24,42.63-165.33t28.41-139.49q93,18.09,210.54,11.62t217-49.08q99.42-42.63,158.87-127.87T6173.3,2976.8Zm-851.18,738.81q-16.83,51.7-43.91,112.37t-59.42,118.83q-32.32,58.13-52.95,86.54-20.72,25.84-23.25,15.5t-2.59-31q0-54.26,22-127.87t53-135.62q31-62,63.29-95.58t52.95-7.75Q5338.92,3664,5322.12,3715.61Zm410.71,33.58a313.08,313.08,0,0,1,31-53,247,247,0,0,1,42.62-46.5q23.25-19.36,38.75-14.2,23.25,10.35,20.67,42.62t-22,63.29q-19.38,31-50.37,47.79t-62-6.46Q5721.19,3775,5732.83,3749.19Zm-311.25-506.32q-25.86-7.74-55.54-28.41a393.35,393.35,0,0,1-54.25-45.21q-24.59-24.52-38.75-53t-9-51.66q5.15-28.4,24.54-46.5t50.37-12.92q33.54,2.61,53,29.71t28.42,64.58a330.28,330.28,0,0,1,9,77.5Q5429.33,3217.08,5421.58,3242.87Z" transform="translate(-63.98 -613.94)"/></g></svg>